<svg width="512" height="512" viewBox="0 0 512 512" fill="none" xmlns="http://www.w3.org/2000/svg">
<rect width="512" height="512" fill="white"/>
<path d="M256.5 313.338C255.3 339.738 228.667 349.338 215.5 350.838V202.838C219.5 167.638 244.5 161.838 256.5 163.338H299.5C293.5 199.338 268.333 204.672 256.5 202.838C257 228.672 257.7 286.938 256.5 313.338Z" fill="#211F1F"/>
<path d="M211.5 203.838H173C176.5 166.338 202 160.338 237.5 162.338C216.7 173.138 211.5 194.505 211.5 203.838Z" fill="#211F1F"/>
<path d="M259.5 288.338V245.838H298.5V204.338L260.5 203.138C290.9 200.738 297.5 173.838 298.5 163.338C331.3 164.138 339.833 191.005 340 204.338V245.838C338.4 278.238 311.667 287.672 298.5 288.338H259.5Z" fill="#08562A"/>
</svg>
